<svg width="225" height="225" viewBox="0 0 225 225" fill="none" xmlns="http://www.w3.org/2000/svg">
<rect x="0.397827" width="224" height="225" rx="19.7378" fill="#161632"/>
<path fill-rule="evenodd" clip-rule="evenodd" d="M112.227 48.5416C112.284 48.5416 112.341 48.5418 112.398 48.5422C112.455 48.5418 112.512 48.5416 112.568 48.5416V48.5295C124.318 48.5295 133.854 58.0961 133.854 69.9101V78.6474C134.763 85.6541 140.71 91.0623 147.925 91.0623H154.458C166.207 91.0623 175.743 100.641 175.743 112.443C175.743 112.48 175.743 112.518 175.743 112.556C175.743 112.556 175.743 112.557 175.743 112.557C175.743 124.359 166.207 133.938 154.457 133.938H147.924C140.71 133.938 134.763 139.346 133.854 146.353V155.09C133.854 166.904 124.318 176.47 112.568 176.47V176.458C100.807 176.458 91.2826 166.88 91.2826 155.078C91.2826 143.264 100.819 133.697 112.568 133.697H133.172V112.557C133.172 112.519 133.172 112.482 133.172 112.444C133.172 112.444 133.172 112.443 133.172 112.443L133.172 91.3027H112.568C112.512 91.3027 112.455 91.3025 112.398 91.302C112.341 91.3025 112.284 91.3027 112.227 91.3027H91.6238V112.443C91.6238 124.257 82.0878 133.823 70.3383 133.823C58.5888 133.823 49.0527 124.245 49.0527 112.443C49.0527 100.641 58.5888 91.0623 70.3383 91.0623H76.8711C84.0859 91.0623 90.0325 85.6541 90.9418 78.6474V69.9101C90.9418 58.0961 100.478 48.5295 112.227 48.5295V48.5416Z" fill="white"/>
</svg>